<?xml version="1.0" standalone="no"?><!DOCTYPE svg PUBLIC "-//W3C//DTD SVG 1.1//EN" "http://www.w3.org/Graphics/SVG/1.1/DTD/svg11.dtd"><svg t="1503017718984" class="icon" style="" viewBox="0 0 1024 1024" version="1.1" xmlns="http://www.w3.org/2000/svg" p-id="1001" xmlns:xlink="http://www.w3.org/1999/xlink" width="200" height="200"><defs><style type="text/css"></style></defs><path d="M621.3 512l282.6 282.6c30.2 30.2 30.2 79.1 0 109.3-30.2 30.2-79.1 30.2-109.3 0L512 621.3 229.4 903.9c-30.2 30.2-79.1 30.2-109.3 0-30.2-30.2-30.2-79.1 0-109.3L402.7 512 120.1 229.4c-30.2-30.2-30.2-79.1 0-109.3 30.2-30.2 79.1-30.2 109.3 0L512 402.7l282.6-282.6c30.2-30.2 79.1-30.2 109.3 0 30.2 30.2 30.2 79.1 0 109.3L621.3 512z" p-id="1002"></path></svg>